#N canvas 649 22 603 649 10;
#X obj 127 280 bng 100 50 10 0 empty empty empty 17 7 0 10 -262144
-1 -1;
#X obj 74 16 bng 15 250 50 0 empty empty empty 17 7 0 10 -262144 -1
-1;
#X obj 230 280 bng 100 50 50 0 empty empty empty 17 7 0 10 -262144
-1 -1;
#X obj 332 280 bng 100 50 50 0 empty empty empty 17 7 0 10 -262144
-1 -1;
#X obj 435 280 bng 100 50 50 0 empty empty empty 17 7 0 10 -262144
-1 -1;
#X obj 132 173 f 0;
#X obj 193 171 + 1;
#X obj 132 200 % 4;
#X obj 132 232 select 0 1 2 3;
#X obj 158 453 osc~ 220;
#X floatatom 191 119 5 0 0 0 - - -;
#X obj 107 133 metro;
#X obj 191 79 / 16;
#X msg 88 442 0 100;
#X obj 90 411 delay 100;
#X obj 154 539 *~;
#X obj 162 581 dac~ 1;
#X obj 47 477 line~;
#X msg 41 424 1 50;
#X msg 193 49 6670;
#X text 355 11 metronome for 146bpm.com;
#X connect 1 0 11 0;
#X connect 1 0 19 0;
#X connect 5 0 6 0;
#X connect 5 0 7 0;
#X connect 6 0 5 1;
#X connect 7 0 8 0;
#X connect 8 0 0 0;
#X connect 8 1 2 0;
#X connect 8 2 3 0;
#X connect 8 3 4 0;
#X connect 9 0 15 0;
#X connect 11 0 5 0;
#X connect 11 0 18 0;
#X connect 11 0 14 0;
#X connect 12 0 10 0;
#X connect 12 0 11 1;
#X connect 13 0 17 0;
#X connect 14 0 13 0;
#X connect 15 0 16 0;
#X connect 17 0 15 1;
#X connect 18 0 17 0;
#X connect 19 0 12 0;
